<mxfile host="app.diagrams.net" agent="Mozilla/5.0 (Windows NT 10.0; Win64; x64) AppleWebKit/537.36 (KHTML, like Gecko) Chrome/133.0.0.0 Safari/537.36" version="26.0.14">
  <diagram name="Page-1" id="o4eQdf8rLRscZZ6JouvJ">
    <mxGraphModel dx="880" dy="-632" grid="1" gridSize="10" guides="1" tooltips="1" connect="1" arrows="1" fold="1" page="1" pageScale="1" pageWidth="850" pageHeight="1100" math="0" shadow="0">
      <root>
        <mxCell id="0" />
        <mxCell id="1" parent="0" />
        <mxCell id="I5n6M3zco9fhy7bnMNf5-89" value="Spawns &amp; Tracks" style="curved=1;startArrow=none;endArrow=block;exitX=0;exitY=0.71;entryX=0;entryY=0.33;rounded=0;labelBackgroundColor=none;strokeColor=#A8201A;fontColor=default;fontStyle=1" parent="1" target="I5n6M3zco9fhy7bnMNf5-84" edge="1">
          <mxGeometry x="0.2462" y="16" relative="1" as="geometry">
            <Array as="points">
              <mxPoint x="20" y="1635" />
              <mxPoint x="20" y="1762" />
            </Array>
            <mxPoint as="offset" />
            <mxPoint x="390" y="1561.5900000000001" as="sourcePoint" />
          </mxGeometry>
        </mxCell>
        <mxCell id="I5n6M3zco9fhy7bnMNf5-92" value="Respawns" style="curved=1;startArrow=none;endArrow=block;exitX=1;exitY=-0.01;entryX=1;entryY=0.74;rounded=0;labelBackgroundColor=none;strokeColor=#A8201A;fontColor=default;fontStyle=1" parent="1" source="I5n6M3zco9fhy7bnMNf5-84" edge="1">
          <mxGeometry x="-0.363" y="14" relative="1" as="geometry">
            <Array as="points">
              <mxPoint x="800" y="1780" />
              <mxPoint x="820" y="1650" />
            </Array>
            <mxPoint as="offset" />
            <mxPoint x="530" y="1565.46" as="targetPoint" />
          </mxGeometry>
        </mxCell>
        <mxCell id="7A3t8UNk3DyReQZgXsi9-8" value="Curses&lt;br&gt;&lt;div&gt;&amp;lt;&amp;lt;library&amp;gt;&amp;gt;&lt;/div&gt;" style="rounded=0;whiteSpace=wrap;html=1;align=center;fillColor=#A9C4EB;" vertex="1" parent="1">
          <mxGeometry x="74.5" y="2400" width="101" height="80" as="geometry" />
        </mxCell>
        <mxCell id="7A3t8UNk3DyReQZgXsi9-9" value="&lt;div style=&quot;&quot;&gt;Rendering&lt;/div&gt;&lt;div&gt;&amp;lt;&amp;lt;Component&amp;gt;&amp;gt;&lt;/div&gt;" style="rounded=0;whiteSpace=wrap;html=1;align=center;fillColor=#A7D7CF;" vertex="1" parent="1">
          <mxGeometry x="660" y="2400" width="110" height="80" as="geometry" />
        </mxCell>
        <mxCell id="7A3t8UNk3DyReQZgXsi9-11" value="Handles Inputs" style="text;whiteSpace=wrap;align=center;" vertex="1" parent="1">
          <mxGeometry x="415" y="2120" width="85" height="25" as="geometry" />
        </mxCell>
        <mxCell id="7A3t8UNk3DyReQZgXsi9-19" value="" style="group" vertex="1" connectable="0" parent="1">
          <mxGeometry x="350" y="1990" width="100" height="90" as="geometry" />
        </mxCell>
        <mxCell id="7A3t8UNk3DyReQZgXsi9-3" value="&lt;font style=&quot;background-color: light-dark(rgb(213, 232, 212), rgb(255, 255, 255));&quot;&gt;&lt;span style=&quot;font-family: Helvetica; font-size: 12px; font-style: normal; font-variant-ligatures: normal; font-variant-caps: normal; font-weight: 400; letter-spacing: normal; orphans: 2; text-indent: 0px; text-transform: none; widows: 2; word-spacing: 0px; -webkit-text-stroke-width: 0px; white-space: normal; text-decoration-thickness: initial; text-decoration-style: initial; text-decoration-color: initial; float: none; display: inline !important; color: rgb(0, 0, 0);&quot;&gt;User Input&lt;/span&gt;&lt;br&gt;&amp;lt;&amp;lt;UI&amp;gt;&amp;gt;&lt;/font&gt;" style="rounded=0;whiteSpace=wrap;html=1;align=center;fillColor=#d5e8d4;strokeColor=#82b366;" vertex="1" parent="7A3t8UNk3DyReQZgXsi9-19">
          <mxGeometry width="100" height="78.75" as="geometry" />
        </mxCell>
        <mxCell id="7A3t8UNk3DyReQZgXsi9-18" value="" style="whiteSpace=wrap;html=1;aspect=fixed;fillColor=#FFFFFF;strokeColor=#20787E;strokeWidth=2;" vertex="1" parent="7A3t8UNk3DyReQZgXsi9-19">
          <mxGeometry x="43.827160493827165" y="67.5" width="11.17283950617284" height="11.17283950617284" as="geometry" />
        </mxCell>
        <mxCell id="7A3t8UNk3DyReQZgXsi9-20" value="" style="endArrow=none;html=1;rounded=0;entryX=0.5;entryY=1;entryDx=0;entryDy=0;exitX=0.5;exitY=0;exitDx=0;exitDy=0;" edge="1" parent="1" source="7A3t8UNk3DyReQZgXsi9-17" target="7A3t8UNk3DyReQZgXsi9-18">
          <mxGeometry width="50" height="50" relative="1" as="geometry">
            <mxPoint x="400" y="2170" as="sourcePoint" />
            <mxPoint x="450" y="2100" as="targetPoint" />
          </mxGeometry>
        </mxCell>
        <mxCell id="7A3t8UNk3DyReQZgXsi9-21" value="" style="group" vertex="1" connectable="0" parent="1">
          <mxGeometry x="340" y="2190" width="130" height="100" as="geometry" />
        </mxCell>
        <mxCell id="7A3t8UNk3DyReQZgXsi9-7" value="&lt;div style=&quot;&quot;&gt;&lt;span style=&quot;background-color: transparent; color: light-dark(rgb(0, 0, 0), rgb(255, 255, 255));&quot;&gt;Game&lt;/span&gt;&lt;/div&gt;&amp;lt;&amp;lt;Component&amp;gt;&amp;gt;" style="rounded=0;whiteSpace=wrap;html=1;align=center;fillColor=#ffe6cc;strokeColor=#d79b00;" vertex="1" parent="7A3t8UNk3DyReQZgXsi9-21">
          <mxGeometry y="10" width="120" height="90" as="geometry" />
        </mxCell>
        <mxCell id="7A3t8UNk3DyReQZgXsi9-17" value="" style="whiteSpace=wrap;html=1;aspect=fixed;fillColor=#FFFFFF;strokeColor=#9A7823;strokeWidth=2;" vertex="1" parent="7A3t8UNk3DyReQZgXsi9-21">
          <mxGeometry x="55" y="10" width="10" height="10" as="geometry" />
        </mxCell>
        <mxCell id="7A3t8UNk3DyReQZgXsi9-24" value="" style="whiteSpace=wrap;html=1;aspect=fixed;fillColor=#FFFFFF;strokeColor=#9A7823;strokeWidth=2;" vertex="1" parent="7A3t8UNk3DyReQZgXsi9-21">
          <mxGeometry y="50" width="10" height="10" as="geometry" />
        </mxCell>
        <mxCell id="7A3t8UNk3DyReQZgXsi9-26" value="" style="whiteSpace=wrap;html=1;aspect=fixed;fillColor=#FFFFFF;strokeColor=#9A7823;strokeWidth=2;" vertex="1" parent="7A3t8UNk3DyReQZgXsi9-21">
          <mxGeometry x="110" y="50" width="10" height="10" as="geometry" />
        </mxCell>
        <mxCell id="7A3t8UNk3DyReQZgXsi9-12" value="" style="ellipse;whiteSpace=wrap;html=1;aspect=fixed;fillColor=#ffe6cc;strokeColor=#d79b00;" vertex="1" parent="1">
          <mxGeometry x="390" y="2120" width="20" height="20" as="geometry" />
        </mxCell>
        <mxCell id="7A3t8UNk3DyReQZgXsi9-27" value="" style="endArrow=none;html=1;rounded=0;exitX=1;exitY=0.5;exitDx=0;exitDy=0;entryX=0;entryY=0.5;entryDx=0;entryDy=0;" edge="1" parent="1" source="7A3t8UNk3DyReQZgXsi9-42" target="7A3t8UNk3DyReQZgXsi9-24">
          <mxGeometry width="50" height="50" relative="1" as="geometry">
            <mxPoint x="400" y="2240" as="sourcePoint" />
            <mxPoint x="450" y="2190" as="targetPoint" />
          </mxGeometry>
        </mxCell>
        <mxCell id="7A3t8UNk3DyReQZgXsi9-31" value="" style="group" vertex="1" connectable="0" parent="1">
          <mxGeometry x="70" y="2200" width="130" height="100" as="geometry" />
        </mxCell>
        <mxCell id="7A3t8UNk3DyReQZgXsi9-4" value="Snake&lt;br&gt;&lt;div&gt;&amp;lt;&amp;lt;Component&amp;gt;&amp;gt;&lt;/div&gt;" style="rounded=0;whiteSpace=wrap;html=1;align=center;fillColor=#e1d5e7;strokeColor=#9673a6;" vertex="1" parent="7A3t8UNk3DyReQZgXsi9-31">
          <mxGeometry width="120" height="90" as="geometry" />
        </mxCell>
        <mxCell id="7A3t8UNk3DyReQZgXsi9-22" value="" style="whiteSpace=wrap;html=1;aspect=fixed;fillColor=#FFFFFF;strokeColor=#783F63;strokeWidth=2;" vertex="1" parent="7A3t8UNk3DyReQZgXsi9-31">
          <mxGeometry x="110" y="40" width="10" height="10" as="geometry" />
        </mxCell>
        <mxCell id="7A3t8UNk3DyReQZgXsi9-23" style="edgeStyle=orthogonalEdgeStyle;rounded=0;orthogonalLoop=1;jettySize=auto;html=1;exitX=0.5;exitY=1;exitDx=0;exitDy=0;fillColor=#e1d5e7;strokeColor=#9673a6;" edge="1" parent="7A3t8UNk3DyReQZgXsi9-31" source="7A3t8UNk3DyReQZgXsi9-22" target="7A3t8UNk3DyReQZgXsi9-22">
          <mxGeometry relative="1" as="geometry" />
        </mxCell>
        <mxCell id="7A3t8UNk3DyReQZgXsi9-37" value="" style="whiteSpace=wrap;html=1;aspect=fixed;fillColor=#FFFFFF;strokeColor=#783F63;strokeWidth=2;" vertex="1" parent="7A3t8UNk3DyReQZgXsi9-31">
          <mxGeometry x="50" y="80" width="10" height="10" as="geometry" />
        </mxCell>
        <mxCell id="7A3t8UNk3DyReQZgXsi9-32" value="" style="group;fillColor=default;" vertex="1" connectable="0" parent="1">
          <mxGeometry x="650" y="2200" width="130" height="100" as="geometry" />
        </mxCell>
        <mxCell id="7A3t8UNk3DyReQZgXsi9-6" value="&lt;div style=&quot;&quot;&gt;&lt;span style=&quot;background-color: transparent; color: light-dark(rgb(0, 0, 0), rgb(255, 255, 255));&quot;&gt;Food&lt;/span&gt;&lt;/div&gt;&lt;div&gt;&amp;lt;&amp;lt;Component&amp;gt;&amp;gt;&lt;/div&gt;" style="rounded=0;whiteSpace=wrap;html=1;align=center;fillColor=#ECCFCF;strokeColor=#681818;" vertex="1" parent="7A3t8UNk3DyReQZgXsi9-32">
          <mxGeometry x="10" width="120" height="90" as="geometry" />
        </mxCell>
        <mxCell id="7A3t8UNk3DyReQZgXsi9-38" value="" style="whiteSpace=wrap;html=1;aspect=fixed;fillColor=default;strokeColor=#681818;strokeWidth=2;" vertex="1" parent="7A3t8UNk3DyReQZgXsi9-32">
          <mxGeometry x="60" y="80" width="10" height="10" as="geometry" />
        </mxCell>
        <mxCell id="7A3t8UNk3DyReQZgXsi9-25" value="" style="whiteSpace=wrap;html=1;aspect=fixed;fillColor=default;direction=south;strokeColor=#681818;strokeWidth=2;" vertex="1" parent="7A3t8UNk3DyReQZgXsi9-32">
          <mxGeometry x="10" y="40" width="10" height="10" as="geometry" />
        </mxCell>
        <mxCell id="7A3t8UNk3DyReQZgXsi9-36" value="" style="whiteSpace=wrap;html=1;aspect=fixed;fillColor=#FFFFFF;strokeColor=#486693;strokeWidth=2;" vertex="1" parent="1">
          <mxGeometry x="120" y="2400" width="10" height="10" as="geometry" />
        </mxCell>
        <mxCell id="7A3t8UNk3DyReQZgXsi9-39" value="" style="whiteSpace=wrap;html=1;aspect=fixed;fillColor=#FFFFFF;strokeColor=#396059;strokeWidth=2;" vertex="1" parent="1">
          <mxGeometry x="710" y="2400" width="10" height="10" as="geometry" />
        </mxCell>
        <mxCell id="7A3t8UNk3DyReQZgXsi9-40" value="" style="endArrow=none;html=1;rounded=0;exitX=0.5;exitY=0;exitDx=0;exitDy=0;entryX=0.5;entryY=1;entryDx=0;entryDy=0;" edge="1" parent="1" source="7A3t8UNk3DyReQZgXsi9-47" target="7A3t8UNk3DyReQZgXsi9-37">
          <mxGeometry width="50" height="50" relative="1" as="geometry">
            <mxPoint x="400" y="2340" as="sourcePoint" />
            <mxPoint x="140" y="2310" as="targetPoint" />
          </mxGeometry>
        </mxCell>
        <mxCell id="7A3t8UNk3DyReQZgXsi9-41" value="" style="endArrow=none;html=1;rounded=0;exitX=0.5;exitY=0;exitDx=0;exitDy=0;entryX=0.5;entryY=1;entryDx=0;entryDy=0;" edge="1" parent="1" source="7A3t8UNk3DyReQZgXsi9-45" target="7A3t8UNk3DyReQZgXsi9-38">
          <mxGeometry width="50" height="50" relative="1" as="geometry">
            <mxPoint x="400" y="2340" as="sourcePoint" />
            <mxPoint x="720" y="2300" as="targetPoint" />
          </mxGeometry>
        </mxCell>
        <mxCell id="7A3t8UNk3DyReQZgXsi9-44" value="" style="endArrow=none;html=1;rounded=0;entryX=0;entryY=0.5;entryDx=0;entryDy=0;exitX=1;exitY=0.5;exitDx=0;exitDy=0;" edge="1" parent="1" source="7A3t8UNk3DyReQZgXsi9-26" target="7A3t8UNk3DyReQZgXsi9-43">
          <mxGeometry width="50" height="50" relative="1" as="geometry">
            <mxPoint x="470" y="2250" as="sourcePoint" />
            <mxPoint x="650" y="2250" as="targetPoint" />
          </mxGeometry>
        </mxCell>
        <mxCell id="7A3t8UNk3DyReQZgXsi9-43" value="" style="ellipse;whiteSpace=wrap;html=1;aspect=fixed;fillColor=#ECCFCF;" vertex="1" parent="1">
          <mxGeometry x="549" y="2235" width="20" height="20" as="geometry" />
        </mxCell>
        <mxCell id="7A3t8UNk3DyReQZgXsi9-46" value="" style="endArrow=none;html=1;rounded=0;exitX=0.5;exitY=0;exitDx=0;exitDy=0;entryX=0.5;entryY=1;entryDx=0;entryDy=0;" edge="1" parent="1" source="7A3t8UNk3DyReQZgXsi9-39" target="7A3t8UNk3DyReQZgXsi9-45">
          <mxGeometry width="50" height="50" relative="1" as="geometry">
            <mxPoint x="715" y="2390" as="sourcePoint" />
            <mxPoint x="715" y="2300" as="targetPoint" />
          </mxGeometry>
        </mxCell>
        <mxCell id="7A3t8UNk3DyReQZgXsi9-45" value="" style="ellipse;whiteSpace=wrap;html=1;aspect=fixed;fillColor=#A7D7CF;" vertex="1" parent="1">
          <mxGeometry x="705" y="2342.5" width="20" height="20" as="geometry" />
        </mxCell>
        <mxCell id="7A3t8UNk3DyReQZgXsi9-48" value="" style="endArrow=none;html=1;rounded=0;exitX=0.5;exitY=0;exitDx=0;exitDy=0;entryX=0.5;entryY=1;entryDx=0;entryDy=0;" edge="1" parent="1" source="7A3t8UNk3DyReQZgXsi9-36" target="7A3t8UNk3DyReQZgXsi9-47">
          <mxGeometry width="50" height="50" relative="1" as="geometry">
            <mxPoint x="130" y="2390" as="sourcePoint" />
            <mxPoint x="130" y="2300" as="targetPoint" />
          </mxGeometry>
        </mxCell>
        <mxCell id="7A3t8UNk3DyReQZgXsi9-47" value="" style="ellipse;whiteSpace=wrap;html=1;aspect=fixed;fillColor=#A9C4EB;" vertex="1" parent="1">
          <mxGeometry x="115" y="2340" width="20" height="20" as="geometry" />
        </mxCell>
        <mxCell id="7A3t8UNk3DyReQZgXsi9-49" value="Manages" style="text;whiteSpace=wrap;align=center;" vertex="1" parent="1">
          <mxGeometry x="217.5" y="2200" width="85" height="25" as="geometry" />
        </mxCell>
        <mxCell id="7A3t8UNk3DyReQZgXsi9-50" value="Manages" style="text;whiteSpace=wrap;align=center;" vertex="1" parent="1">
          <mxGeometry x="516.5" y="2210" width="85" height="25" as="geometry" />
        </mxCell>
        <mxCell id="7A3t8UNk3DyReQZgXsi9-51" value="Spawns &amp; Consumed" style="text;whiteSpace=wrap;align=center;" vertex="1" parent="1">
          <mxGeometry x="580" y="2337.5" width="125" height="25" as="geometry" />
        </mxCell>
        <mxCell id="7A3t8UNk3DyReQZgXsi9-52" value="Moves &amp; Grows " style="text;whiteSpace=wrap;align=center;" vertex="1" parent="1">
          <mxGeometry x="140" y="2337.5" width="90" height="25" as="geometry" />
        </mxCell>
        <mxCell id="7A3t8UNk3DyReQZgXsi9-56" value="" style="endArrow=none;html=1;rounded=0;exitX=1;exitY=0.5;exitDx=0;exitDy=0;entryX=0;entryY=0.5;entryDx=0;entryDy=0;" edge="1" parent="1" source="7A3t8UNk3DyReQZgXsi9-22" target="7A3t8UNk3DyReQZgXsi9-42">
          <mxGeometry width="50" height="50" relative="1" as="geometry">
            <mxPoint x="190" y="2245" as="sourcePoint" />
            <mxPoint x="330" y="2245" as="targetPoint" />
          </mxGeometry>
        </mxCell>
        <mxCell id="7A3t8UNk3DyReQZgXsi9-42" value="" style="ellipse;whiteSpace=wrap;html=1;aspect=fixed;fillColor=#e1d5e7;strokeColor=#9673a6;" vertex="1" parent="1">
          <mxGeometry x="250" y="2235" width="20" height="20" as="geometry" />
        </mxCell>
        <mxCell id="7A3t8UNk3DyReQZgXsi9-63" value="" style="endArrow=none;html=1;rounded=0;entryX=0.5;entryY=1;entryDx=0;entryDy=0;exitX=1;exitY=0.5;exitDx=0;exitDy=0;" edge="1" parent="1" source="7A3t8UNk3DyReQZgXsi9-43" target="7A3t8UNk3DyReQZgXsi9-25">
          <mxGeometry width="50" height="50" relative="1" as="geometry">
            <mxPoint x="340" y="2290" as="sourcePoint" />
            <mxPoint x="390" y="2240" as="targetPoint" />
          </mxGeometry>
        </mxCell>
        <mxCell id="7A3t8UNk3DyReQZgXsi9-71" style="edgeStyle=orthogonalEdgeStyle;rounded=0;orthogonalLoop=1;jettySize=auto;html=1;exitX=0.5;exitY=1;exitDx=0;exitDy=0;" edge="1" parent="1" source="7A3t8UNk3DyReQZgXsi9-52" target="7A3t8UNk3DyReQZgXsi9-52">
          <mxGeometry relative="1" as="geometry" />
        </mxCell>
      </root>
    </mxGraphModel>
  </diagram>
</mxfile>
